<svg width="16" height="12" viewBox="0 0 16 12" fill="none" xmlns="http://www.w3.org/2000/svg">
<path d="M14.7501 11.5C15.0639 11.5 15.3446 11.3046 15.4535 11.0102C15.5624 10.7159 15.4765 10.3848 15.2382 10.1806L8.23822 4.18063C7.95732 3.93983 7.54282 3.93983 7.26202 4.18063L0.26202 10.1806C0.0237201 10.3848 -0.0621806 10.7159 0.0466194 11.0102C0.155519 11.3046 0.43622 11.5 0.75012 11.5H14.7501Z" fill="#48709A"/>
<path fill-rule="evenodd" clip-rule="evenodd" d="M15.3196 7.23812C15.05 7.55262 14.5765 7.58902 14.262 7.31942L7.75012 1.73782L1.23822 7.31942C0.923721 7.58902 0.450221 7.55262 0.180621 7.23812C-0.0888788 6.92362 -0.0524789 6.45012 0.262021 6.18052L7.26202 0.180523C7.54292 -0.0601771 7.95732 -0.0601771 8.23822 0.180523L15.2382 6.18052C15.5527 6.45012 15.5891 6.92362 15.3196 7.23812Z" fill="#48709A"/>
</svg>
