<svg width="1411" height="1408" viewBox="0 0 1411 1408" fill="none" xmlns="http://www.w3.org/2000/svg">
<path d="M1404.02 39C1415.35 66.3333 1410.69 89.6667 1390.02 109L897.021 602V1344C897.021 1372 884.021 1391.67 858.021 1403C849.354 1406.33 841.021 1408 833.021 1408C815.021 1408 800.021 1401.67 788.021 1389L532.021 1133C519.354 1120.33 513.021 1105.33 513.021 1088V602L20.0208 109C-0.645832 89.6667 -5.3125 66.3333 6.02083 39C17.3542 13 37.0208 0 65.0208 0H1345.02C1373.02 0 1392.69 13 1404.02 39Z" fill="white"/>
</svg>
