<svg width="27" height="27" viewBox="0 0 27 27" fill="none" xmlns="http://www.w3.org/2000/svg">
<path fill-rule="evenodd" clip-rule="evenodd" d="M5.43026 0.5H7.2503C7.88869 0.499995 8.40359 0.499989 8.82271 0.528585C9.25362 0.557989 9.63472 0.619975 9.99555 0.769433C10.8628 1.12868 11.5519 1.81773 11.9111 2.68501C12.0606 3.04583 12.1226 3.42694 12.152 3.85784C12.1806 4.27696 12.1806 4.79186 12.1806 5.43026V7.2503C12.1806 7.88869 12.1806 8.40365 12.152 8.82271C12.1226 9.25362 12.0606 9.63472 11.9111 9.99555C11.5519 10.8628 10.8628 11.5519 9.99555 11.9111C9.63472 12.0606 9.25362 12.1226 8.82271 12.152C8.40359 12.1806 7.88869 12.1806 7.2503 12.1806H5.43026C4.79186 12.1806 4.27696 12.1806 3.85784 12.152C3.42694 12.1226 3.04583 12.0606 2.68501 11.9111C1.81773 11.5519 1.12868 10.8628 0.769433 9.99555C0.619975 9.63472 0.557989 9.25362 0.528585 8.82271C0.499989 8.40359 0.499995 7.88869 0.5 7.2503V5.43026C0.499995 4.79186 0.499989 4.27696 0.528585 3.85784C0.557989 3.42694 0.619975 3.04583 0.769433 2.68501C1.12868 1.81773 1.81773 1.12868 2.68501 0.769433C3.04583 0.619975 3.42694 0.557989 3.85784 0.528585C4.27696 0.499989 4.79186 0.499995 5.43026 0.5ZM3.95421 1.94112C3.59535 1.96559 3.38637 2.01141 3.22683 2.07746C2.70646 2.29302 2.29302 2.70646 2.07746 3.22683C2.01141 3.38637 1.96559 3.59535 1.94112 3.95421C1.91621 4.31944 1.91584 4.78602 1.91584 5.45537V7.22519C1.91584 7.89453 1.91621 8.36112 1.94112 8.72635C1.96559 9.08521 2.01141 9.29418 2.07746 9.45373C2.29302 9.9741 2.70646 10.3875 3.22683 10.6031C3.38637 10.6691 3.59535 10.715 3.95421 10.7394C4.31944 10.7643 4.78602 10.7647 5.45537 10.7647H7.22519C7.89453 10.7647 8.36112 10.7643 8.72635 10.7394C9.08521 10.715 9.29418 10.6691 9.45373 10.6031C9.9741 10.3875 10.3875 9.9741 10.6031 9.45373C10.6691 9.29418 10.715 9.08521 10.7394 8.72635C10.7643 8.36112 10.7647 7.89453 10.7647 7.22519V5.45537C10.7647 4.78602 10.7643 4.31944 10.7394 3.95421C10.715 3.59535 10.6691 3.38637 10.6031 3.22683C10.3875 2.70646 9.9741 2.29302 9.45373 2.07746C9.29418 2.01141 9.08521 1.96559 8.72635 1.94112C8.36112 1.91621 7.89453 1.91584 7.22519 1.91584H5.45537C4.78602 1.91584 4.31944 1.91621 3.95421 1.94112ZM5.43026 14.3043H7.2503C7.88869 14.3043 8.40359 14.3043 8.82271 14.3329C9.25362 14.3623 9.63472 14.4243 9.99555 14.5737C10.8628 14.933 11.5519 15.622 11.9111 16.4893C12.0606 16.8501 12.1226 17.2312 12.152 17.6621C12.1806 18.0813 12.1806 18.5962 12.1806 19.2345V21.0546C12.1806 21.693 12.1806 22.2079 12.152 22.627C12.1226 23.0579 12.0606 23.439 11.9111 23.7998C11.5519 24.6671 10.8628 25.3562 9.99555 25.7154C9.63472 25.8649 9.25362 25.9269 8.82271 25.9563C8.40359 25.9848 7.88869 25.9848 7.2503 25.9848H5.43026C4.79186 25.9848 4.27696 25.9848 3.85784 25.9563C3.42694 25.9269 3.04583 25.8649 2.68501 25.7154C1.81773 25.3562 1.12868 24.6671 0.769433 23.7998C0.619975 23.439 0.557989 23.0579 0.528585 22.627C0.499989 22.2079 0.499995 21.693 0.5 21.0546V19.2345C0.499995 18.5962 0.499989 18.0813 0.528585 17.6621C0.557989 17.2312 0.619975 16.8501 0.769433 16.4893C1.12868 15.622 1.81773 14.933 2.68501 14.5737C3.04583 14.4243 3.42694 14.3623 3.85784 14.3329C4.27696 14.3043 4.79186 14.3043 5.43026 14.3043ZM3.95421 15.7454C3.59535 15.7699 3.38637 15.8157 3.22683 15.8818C2.70646 16.0973 2.29302 16.5107 2.07746 17.0311C2.01141 17.1907 1.96559 17.3996 1.94112 17.7585C1.91621 18.1237 1.91584 18.5903 1.91584 19.2597V21.0295C1.91584 21.6988 1.91621 22.1654 1.94112 22.5306C1.96559 22.8895 2.01141 23.0985 2.07746 23.258C2.29302 23.7784 2.70646 24.1918 3.22683 24.4074C3.38637 24.4734 3.59535 24.5193 3.95421 24.5437C4.31944 24.5686 4.78602 24.569 5.45537 24.569H7.22519C7.89453 24.569 8.36112 24.5686 8.72635 24.5437C9.08521 24.5193 9.29418 24.4734 9.45373 24.4074C9.9741 24.1918 10.3875 23.7784 10.6031 23.258C10.6691 23.0985 10.715 22.8895 10.7394 22.5306C10.7643 22.1654 10.7647 21.6988 10.7647 21.0295V19.2597C10.7647 18.5903 10.7643 18.1237 10.7394 17.7585C10.715 17.3996 10.6691 17.1907 10.6031 17.0311C10.3875 16.5107 9.9741 16.0973 9.45373 15.8818C9.29418 15.8157 9.08521 15.7699 8.72635 15.7454C8.36112 15.7205 7.89453 15.7201 7.22519 15.7201H5.45537C4.78602 15.7201 4.31944 15.7205 3.95421 15.7454ZM19.2345 0.5H21.0546C21.693 0.499995 22.2079 0.499989 22.627 0.528585C23.0579 0.557989 23.439 0.619975 23.7998 0.769433C24.6671 1.12868 25.3562 1.81773 25.7154 2.68501C25.8649 3.04583 25.9269 3.42694 25.9563 3.85784C25.9848 4.27696 25.9848 4.79186 25.9848 5.43026V7.2503C25.9848 7.88869 25.9848 8.40365 25.9563 8.82271C25.9269 9.25362 25.8649 9.63472 25.7154 9.99555C25.3562 10.8628 24.6671 11.5519 23.7998 11.9111C23.439 12.0606 23.0579 12.1226 22.627 12.152C22.2079 12.1806 21.693 12.1806 21.0546 12.1806H19.2345C18.5962 12.1806 18.0813 12.1806 17.6621 12.152C17.2312 12.1226 16.8501 12.0606 16.4893 11.9111C15.622 11.5519 14.933 10.8628 14.5737 9.99555C14.4243 9.63472 14.3623 9.25362 14.3329 8.82271C14.3043 8.40359 14.3043 7.88869 14.3043 7.2503V5.43026C14.3043 4.79186 14.3043 4.27696 14.3329 3.85784C14.3623 3.42694 14.4243 3.04583 14.5737 2.68501C14.933 1.81773 15.622 1.12868 16.4893 0.769433C16.8501 0.619975 17.2312 0.557989 17.6621 0.528585C18.0813 0.499989 18.5962 0.499995 19.2345 0.5ZM17.7585 1.94112C17.3996 1.96559 17.1907 2.01141 17.0311 2.07746C16.5107 2.29302 16.0973 2.70646 15.8818 3.22683C15.8157 3.38637 15.7699 3.59535 15.7454 3.95421C15.7205 4.31944 15.7201 4.78602 15.7201 5.45537V7.22519C15.7201 7.89453 15.7205 8.36112 15.7454 8.72635C15.7699 9.08521 15.8157 9.29418 15.8818 9.45373C16.0973 9.9741 16.5107 10.3875 17.0311 10.6031C17.1907 10.6691 17.3996 10.715 17.7585 10.7394C18.1237 10.7643 18.5903 10.7647 19.2597 10.7647H21.0295C21.6988 10.7647 22.1654 10.7643 22.5306 10.7394C22.8895 10.715 23.0985 10.6691 23.258 10.6031C23.7784 10.3875 24.1918 9.9741 24.4074 9.45373C24.4734 9.29418 24.5193 9.08521 24.5437 8.72635C24.5686 8.36112 24.569 7.89453 24.569 7.22519V5.45537C24.569 4.78602 24.5686 4.31944 24.5437 3.95421C24.5193 3.59535 24.4734 3.38637 24.4074 3.22683C24.1918 2.70646 23.7784 2.29302 23.258 2.07746C23.0985 2.01141 22.8895 1.96559 22.5306 1.94112C22.1654 1.91621 21.6988 1.91584 21.0295 1.91584H19.2597C18.5903 1.91584 18.1237 1.91621 17.7585 1.94112ZM19.2345 14.3043H21.0546C21.693 14.3043 22.2079 14.3043 22.627 14.3329C23.0579 14.3623 23.439 14.4243 23.7998 14.5737C24.6671 14.933 25.3562 15.622 25.7154 16.4893C25.8649 16.8501 25.9269 17.2312 25.9563 17.6621C25.9848 18.0813 25.9848 18.5962 25.9848 19.2345V21.0546C25.9848 21.693 25.9848 22.2079 25.9563 22.627C25.9269 23.0579 25.8649 23.439 25.7154 23.7998C25.3562 24.6671 24.6671 25.3562 23.7998 25.7154C23.439 25.8649 23.0579 25.9269 22.627 25.9563C22.2079 25.9848 21.693 25.9848 21.0546 25.9848H19.2345C18.5962 25.9848 18.0813 25.9848 17.6621 25.9563C17.2312 25.9269 16.8501 25.8649 16.4893 25.7154C15.622 25.3562 14.933 24.6671 14.5737 23.7998C14.4243 23.439 14.3623 23.0579 14.3329 22.627C14.3043 22.2079 14.3043 21.693 14.3043 21.0546V19.2345C14.3043 18.5962 14.3043 18.0813 14.3329 17.6621C14.3623 17.2312 14.4243 16.8501 14.5737 16.4893C14.933 15.622 15.622 14.933 16.4893 14.5737C16.8501 14.4243 17.2312 14.3623 17.6621 14.3329C18.0813 14.3043 18.5962 14.3043 19.2345 14.3043ZM17.7585 15.7454C17.3996 15.7699 17.1907 15.8157 17.0311 15.8818C16.5107 16.0973 16.0973 16.5107 15.8818 17.0311C15.8157 17.1907 15.7699 17.3996 15.7454 17.7585C15.7205 18.1237 15.7201 18.5903 15.7201 19.2597V21.0295C15.7201 21.6988 15.7205 22.1654 15.7454 22.5306C15.7699 22.8895 15.8157 23.0985 15.8818 23.258C16.0973 23.7784 16.5107 24.1918 17.0311 24.4074C17.1907 24.4734 17.3996 24.5193 17.7585 24.5437C18.1237 24.5686 18.5903 24.569 19.2597 24.569H21.0295C21.6988 24.569 22.1654 24.5686 22.5306 24.5437C22.8895 24.5193 23.0985 24.4734 23.258 24.4074C23.7784 24.1918 24.1918 23.7784 24.4074 23.258C24.4734 23.0985 24.5193 22.8895 24.5437 22.5306C24.5686 22.1654 24.569 21.6988 24.569 21.0295V19.2597C24.569 18.5903 24.5686 18.1237 24.5437 17.7585C24.5193 17.3996 24.4734 17.1907 24.4074 17.0311C24.1918 16.5107 23.7784 16.0973 23.258 15.8818C23.0985 15.8157 22.8895 15.7699 22.5306 15.7454C22.1654 15.7205 21.6988 15.7201 21.0295 15.7201H19.2597C18.5903 15.7201 18.1237 15.7205 17.7585 15.7454Z" fill="#EAE0CF" stroke="#EAE0CF"/>
</svg>
