<svg width="29" height="29" viewBox="0 0 29 29" fill="none" xmlns="http://www.w3.org/2000/svg">
<g clip-path="url(#clip0_63_582)">
<path fill-rule="evenodd" clip-rule="evenodd" d="M7.56662 1.75757H9.38666C10.0251 1.75756 10.54 1.75756 10.9591 1.78615C11.39 1.81556 11.7711 1.87754 12.1319 2.027C12.9992 2.38625 13.6882 3.07529 14.0475 3.94258C14.1969 4.3034 14.2589 4.6845 14.2884 5.11541C14.3169 5.53453 14.3169 6.04943 14.3169 6.68782V8.50787C14.3169 9.14626 14.3169 9.66122 14.2884 10.0803C14.2589 10.5112 14.1969 10.8923 14.0475 11.2531C13.6882 12.1204 12.9992 12.8094 12.1319 13.1687C11.7711 13.3181 11.39 13.3801 10.9591 13.4096C10.54 13.4381 10.0251 13.4381 9.38666 13.4381H7.56662C6.92822 13.4381 6.41332 13.4381 5.9942 13.4096C5.5633 13.3801 5.18219 13.3181 4.82137 13.1687C3.95409 12.8094 3.26504 12.1204 2.90579 11.2531C2.75634 10.8923 2.69435 10.5112 2.66495 10.0803C2.63635 9.66116 2.63636 9.14626 2.63636 8.50787V6.68782C2.63636 6.04943 2.63635 5.53453 2.66495 5.11541C2.69435 4.6845 2.75634 4.3034 2.90579 3.94258C3.26504 3.07529 3.95409 2.38625 4.82137 2.027C5.18219 1.87754 5.5633 1.81556 5.9942 1.78615C6.41332 1.75756 6.92822 1.75756 7.56662 1.75757ZM6.09057 3.19868C5.73171 3.22316 5.52273 3.26898 5.36319 3.33503C4.84282 3.55059 4.42938 3.96403 4.21382 4.48439C4.14777 4.64394 4.10195 4.85292 4.07748 5.21177C4.05257 5.577 4.0522 6.04359 4.0522 6.71294V8.48275C4.0522 9.1521 4.05257 9.61869 4.07748 9.98392C4.10195 10.3428 4.14777 10.5518 4.21382 10.7113C4.42938 11.2317 4.84282 11.6451 5.36319 11.8607C5.52273 11.9267 5.73171 11.9725 6.09057 11.997C6.4558 12.0219 6.92238 12.0223 7.59173 12.0223H9.36155C10.0309 12.0223 10.4975 12.0219 10.8627 11.997C11.2216 11.9725 11.4305 11.9267 11.5901 11.8607C12.1105 11.6451 12.5239 11.2317 12.7395 10.7113C12.8055 10.5518 12.8513 10.3428 12.8758 9.98392C12.9007 9.61869 12.9011 9.1521 12.9011 8.48275V6.71294C12.9011 6.04359 12.9007 5.577 12.8758 5.21177C12.8513 4.85292 12.8055 4.64394 12.7395 4.48439C12.5239 3.96403 12.1105 3.55059 11.5901 3.33503C11.4305 3.26898 11.2216 3.22316 10.8627 3.19868C10.4975 3.17378 10.0309 3.17341 9.36155 3.17341H7.59173C6.92238 3.17341 6.4558 3.17378 6.09057 3.19868ZM7.56662 15.5619H9.38666C10.0251 15.5619 10.54 15.5619 10.9591 15.5904C11.39 15.6198 11.7711 15.6819 12.1319 15.8313C12.9992 16.1905 13.6882 16.8796 14.0475 17.7469C14.1969 18.1077 14.2589 18.4888 14.2884 18.9197C14.3169 19.3388 14.3169 19.8537 14.3169 20.4921V22.3122C14.3169 22.9506 14.3169 23.4655 14.2884 23.8846C14.2589 24.3155 14.1969 24.6966 14.0475 25.0574C13.6882 25.9247 12.9992 26.6137 12.1319 26.973C11.7711 27.1224 11.39 27.1844 10.9591 27.2139C10.54 27.2424 10.0251 27.2424 9.38666 27.2424H7.56662C6.92822 27.2424 6.41332 27.2424 5.9942 27.2139C5.5633 27.1844 5.18219 27.1224 4.82137 26.973C3.95409 26.6137 3.26504 25.9247 2.90579 25.0574C2.75634 24.6966 2.69435 24.3155 2.66495 23.8846C2.63635 23.4655 2.63636 22.9506 2.63636 22.3122V20.4921C2.63636 19.8537 2.63635 19.3388 2.66495 18.9197C2.69435 18.4888 2.75634 18.1077 2.90579 17.7469C3.26504 16.8796 3.95409 16.1905 4.82137 15.8313C5.18219 15.6819 5.5633 15.6198 5.9942 15.5904C6.41332 15.5619 6.92822 15.5619 7.56662 15.5619ZM6.09057 17.003C5.73171 17.0275 5.52273 17.0733 5.36319 17.1393C4.84282 17.3549 4.42938 17.7683 4.21382 18.2887C4.14777 18.4482 4.10195 18.6572 4.07748 19.0161C4.05257 19.3813 4.0522 19.8479 4.0522 20.5172V22.287C4.0522 22.9564 4.05257 23.423 4.07748 23.7882C4.10195 24.1471 4.14777 24.356 4.21382 24.5156C4.42938 25.036 4.84282 25.4494 5.36319 25.665C5.52273 25.731 5.73171 25.7768 6.09057 25.8013C6.4558 25.8262 6.92238 25.8266 7.59173 25.8266H9.36155C10.0309 25.8266 10.4975 25.8262 10.8627 25.8013C11.2216 25.7768 11.4305 25.731 11.5901 25.665C12.1105 25.4494 12.5239 25.036 12.7395 24.5156C12.8055 24.356 12.8513 24.1471 12.8758 23.7882C12.9007 23.423 12.9011 22.9564 12.9011 22.287V20.5172C12.9011 19.8479 12.9007 19.3813 12.8758 19.0161C12.8513 18.6572 12.8055 18.4482 12.7395 18.2887C12.5239 17.7683 12.1105 17.3549 11.5901 17.1393C11.4305 17.0733 11.2216 17.0275 10.8627 17.003C10.4975 16.9781 10.0309 16.9777 9.36155 16.9777H7.59173C6.92238 16.9777 6.4558 16.9781 6.09057 17.003ZM21.3709 1.75757H23.191C23.8293 1.75756 24.3442 1.75756 24.7634 1.78615C25.1943 1.81556 25.5754 1.87754 25.9362 2.027C26.8035 2.38625 27.4925 3.07529 27.8518 3.94258C28.0012 4.3034 28.0632 4.6845 28.0926 5.11541C28.1212 5.53453 28.1212 6.04943 28.1212 6.68782V8.50787C28.1212 9.14626 28.1212 9.66122 28.0926 10.0803C28.0632 10.5112 28.0012 10.8923 27.8518 11.2531C27.4925 12.1204 26.8035 12.8094 25.9362 13.1687C25.5754 13.3181 25.1943 13.3801 24.7634 13.4096C24.3442 13.4381 23.8293 13.4381 23.191 13.4381H21.3709C20.7325 13.4381 20.2176 13.4381 19.7985 13.4096C19.3676 13.3801 18.9865 13.3181 18.6257 13.1687C17.7584 12.8094 17.0693 12.1204 16.7101 11.2531C16.5606 10.8923 16.4986 10.5112 16.4692 10.0803C16.4407 9.66116 16.4407 9.14626 16.4407 8.50787V6.68782C16.4407 6.04943 16.4407 5.53453 16.4692 5.11541C16.4986 4.6845 16.5606 4.3034 16.7101 3.94258C17.0693 3.07529 17.7584 2.38625 18.6257 2.027C18.9865 1.87754 19.3676 1.81556 19.7985 1.78615C20.2176 1.75756 20.7325 1.75756 21.3709 1.75757ZM19.8949 3.19868C19.536 3.22316 19.327 3.26898 19.1675 3.33503C18.6471 3.55059 18.2337 3.96403 18.0181 4.48439C17.9521 4.64394 17.9062 4.85292 17.8818 5.21177C17.8569 5.577 17.8565 6.04359 17.8565 6.71294V8.48275C17.8565 9.1521 17.8569 9.61869 17.8818 9.98392C17.9062 10.3428 17.9521 10.5518 18.0181 10.7113C18.2337 11.2317 18.6471 11.6451 19.1675 11.8607C19.327 11.9267 19.536 11.9725 19.8949 11.997C20.2601 12.0219 20.7267 12.0223 21.396 12.0223H23.1658C23.8352 12.0223 24.3018 12.0219 24.667 11.997C25.0259 11.9725 25.2348 11.9267 25.3944 11.8607C25.9148 11.6451 26.3282 11.2317 26.5437 10.7113C26.6098 10.5518 26.6556 10.3428 26.6801 9.98392C26.705 9.61869 26.7054 9.1521 26.7054 8.48275V6.71294C26.7054 6.04359 26.705 5.577 26.6801 5.21177C26.6556 4.85292 26.6098 4.64394 26.5437 4.48439C26.3282 3.96403 25.9148 3.55059 25.3944 3.33503C25.2348 3.26898 25.0259 3.22316 24.667 3.19868C24.3018 3.17378 23.8352 3.17341 23.1658 3.17341H21.396C20.7267 3.17341 20.2601 3.17378 19.8949 3.19868ZM21.3709 15.5619H23.191C23.8293 15.5619 24.3442 15.5619 24.7634 15.5904C25.1943 15.6198 25.5754 15.6819 25.9362 15.8313C26.8035 16.1905 27.4925 16.8796 27.8518 17.7469C28.0012 18.1077 28.0632 18.4888 28.0926 18.9197C28.1212 19.3388 28.1212 19.8537 28.1212 20.4921V22.3122C28.1212 22.9506 28.1212 23.4655 28.0926 23.8846C28.0632 24.3155 28.0012 24.6966 27.8518 25.0574C27.4925 25.9247 26.8035 26.6137 25.9362 26.973C25.5754 27.1224 25.1943 27.1844 24.7634 27.2139C24.3442 27.2424 23.8293 27.2424 23.191 27.2424H21.3709C20.7325 27.2424 20.2176 27.2424 19.7985 27.2139C19.3676 27.1844 18.9865 27.1224 18.6257 26.973C17.7584 26.6137 17.0693 25.9247 16.7101 25.0574C16.5606 24.6966 16.4986 24.3155 16.4692 23.8846C16.4407 23.4655 16.4407 22.9506 16.4407 22.3122V20.4921C16.4407 19.8537 16.4407 19.3388 16.4692 18.9197C16.4986 18.4888 16.5606 18.1077 16.7101 17.7469C17.0693 16.8796 17.7584 16.1905 18.6257 15.8313C18.9865 15.6819 19.3676 15.6198 19.7985 15.5904C20.2176 15.5619 20.7325 15.5619 21.3709 15.5619ZM19.8949 17.003C19.536 17.0275 19.327 17.0733 19.1675 17.1393C18.6471 17.3549 18.2337 17.7683 18.0181 18.2887C17.9521 18.4482 17.9062 18.6572 17.8818 19.0161C17.8569 19.3813 17.8565 19.8479 17.8565 20.5172V22.287C17.8565 22.9564 17.8569 23.423 17.8818 23.7882C17.9062 24.1471 17.9521 24.356 18.0181 24.5156C18.2337 25.036 18.6471 25.4494 19.1675 25.665C19.327 25.731 19.536 25.7768 19.8949 25.8013C20.2601 25.8262 20.7267 25.8266 21.396 25.8266H23.1658C23.8352 25.8266 24.3018 25.8262 24.667 25.8013C25.0259 25.7768 25.2348 25.731 25.3944 25.665C25.9148 25.4494 26.3282 25.036 26.5437 24.5156C26.6098 24.356 26.6556 24.1471 26.6801 23.7882C26.705 23.423 26.7054 22.9564 26.7054 22.287V20.5172C26.7054 19.8479 26.705 19.3813 26.6801 19.0161C26.6556 18.6572 26.6098 18.4482 26.5437 18.2887C26.3282 17.7683 25.9148 17.3549 25.3944 17.1393C25.2348 17.0733 25.0259 17.0275 24.667 17.003C24.3018 16.9781 23.8352 16.9777 23.1658 16.9777H21.396C20.7267 16.9777 20.2601 16.9781 19.8949 17.003Z" fill="url(#paint0_linear_63_582)" stroke="url(#paint1_linear_63_582)"/>
</g>
<defs>
<linearGradient id="paint0_linear_63_582" x1="15.3788" y1="1.75757" x2="15.3788" y2="27.2424" gradientUnits="userSpaceOnUse">
<stop stop-color="#EAE0CF"/>
<stop offset="1" stop-color="#F1DBB5"/>
</linearGradient>
<linearGradient id="paint1_linear_63_582" x1="15.3788" y1="1.75757" x2="15.3788" y2="27.2424" gradientUnits="userSpaceOnUse">
<stop stop-color="#EAE0CF"/>
<stop offset="1" stop-color="#F1DBB5"/>
</linearGradient>
<clipPath id="clip0_63_582">
<rect width="29" height="29" fill="white"/>
</clipPath>
</defs>
</svg>
