<svg width="25" height="26" viewBox="0 0 25 26" fill="none" xmlns="http://www.w3.org/2000/svg">
<path d="M12.5 0C5.59375 0 0 5.8175 0 13C0 20.1825 5.59375 26 12.5 26C19.4062 26 25 20.1825 25 13C25 5.8175 19.4062 0 12.5 0ZM12.5 3.9C14.5687 3.9 16.25 5.6485 16.25 7.8C16.25 9.958 14.5687 11.7 12.5 11.7C10.4313 11.7 8.75 9.958 8.75 7.8C8.75 5.6485 10.4313 3.9 12.5 3.9ZM12.5 22.36C9.36875 22.36 6.61875 20.696 5 18.174C5.03125 15.5935 10.0062 14.17 12.5 14.17C14.9938 14.17 19.9625 15.5935 20 18.174C18.3813 20.696 15.6313 22.36 12.5 22.36Z" fill="white"/>
</svg>
