<svg width="13" height="13" viewBox="0 0 13 13" fill="none" xmlns="http://www.w3.org/2000/svg">
<path d="M12.656 10.9275L9.79202 8.06361C10.2907 7.25619 10.5921 6.31434 10.5921 5.2959C10.5921 2.37093 8.22112 0 5.29607 0C2.37101 0 0 2.37093 0 5.2959C0 8.22086 2.37101 10.5918 5.29607 10.5918C6.31454 10.5918 7.25643 10.2903 8.06306 9.79252L10.9278 12.6564C11.1584 12.8793 11.4673 13.0027 11.788 13C12.1087 12.9972 12.4154 12.8686 12.6422 12.6418C12.8689 12.4149 12.9974 12.1081 13 11.7874C13.0025 11.4668 12.879 11.1579 12.656 10.9275ZM5.29607 8.96229C3.27134 8.96229 1.62956 7.32056 1.62956 5.2959C1.62956 3.27123 3.27134 1.62951 5.29607 1.62951C7.32079 1.62951 8.96257 3.27123 8.96257 5.2959C8.96257 7.32056 7.32079 8.96229 5.29607 8.96229Z" fill="#383737"/>
</svg>
