<svg width="33" height="33" viewBox="0 0 33 33" fill="none" xmlns="http://www.w3.org/2000/svg">
<g clip-path="url(#clip0_61_565)">
<path d="M26.7163 17.8475C26.7713 17.4075 26.8125 16.9675 26.8125 16.5C26.8125 16.0325 26.7713 15.5925 26.7163 15.1525L29.6175 12.8837C29.8788 12.6775 29.9475 12.3062 29.7825 12.0037L27.0325 7.24625C26.8675 6.94375 26.4963 6.83375 26.1938 6.94375L22.77 8.31875C22.055 7.76875 21.285 7.315 20.4463 6.97125L19.9237 3.3275C19.8825 2.9975 19.5938 2.75 19.25 2.75H13.75C13.4062 2.75 13.1175 2.9975 13.0763 3.3275L12.5538 6.97125C11.715 7.315 10.945 7.7825 10.23 8.31875L6.80625 6.94375C6.49 6.82 6.1325 6.94375 5.9675 7.24625L3.2175 12.0037C3.03875 12.3062 3.12125 12.6775 3.3825 12.8837L6.28375 15.1525C6.22875 15.5925 6.1875 16.0462 6.1875 16.5C6.1875 16.9537 6.22875 17.4075 6.28375 17.8475L3.3825 20.1162C3.12125 20.3225 3.0525 20.6937 3.2175 20.9962L5.9675 25.7537C6.1325 26.0562 6.50375 26.1662 6.80625 26.0562L10.23 24.6812C10.945 25.2312 11.715 25.685 12.5538 26.0287L13.0763 29.6725C13.1175 30.0025 13.4062 30.25 13.75 30.25H19.25C19.5938 30.25 19.8825 30.0025 19.9237 29.6725L20.4463 26.0287C21.285 25.685 22.055 25.2175 22.77 24.6812L26.1938 26.0562C26.51 26.18 26.8675 26.0562 27.0325 25.7537L29.7825 20.9962C29.9475 20.6937 29.8788 20.3225 29.6175 20.1162L26.7163 17.8475ZM16.5 21.3125C13.8463 21.3125 11.6875 19.1537 11.6875 16.5C11.6875 13.8462 13.8463 11.6875 16.5 11.6875C19.1538 11.6875 21.3125 13.8462 21.3125 16.5C21.3125 19.1537 19.1538 21.3125 16.5 21.3125Z" fill="url(#paint0_linear_61_565)"/>
</g>
<defs>
<linearGradient id="paint0_linear_61_565" x1="3.12217" y1="16.5" x2="29.8718" y2="16.5" gradientUnits="userSpaceOnUse">
<stop stop-color="#EAE0CF"/>
<stop offset="1" stop-color="#FEF2DD"/>
</linearGradient>
<clipPath id="clip0_61_565">
<rect width="33" height="33" fill="white"/>
</clipPath>
</defs>
</svg>
